<svg width="25" height="22" viewBox="0 0 25 22" fill="none" xmlns="http://www.w3.org/2000/svg">
<path d="M24.065 10.7662C24.0256 10.368 23.8652 9.991 23.6047 9.68821L16.6281 1.54884C16.2996 1.13854 15.8182 0.879627 15.2958 0.831179C14.7735 0.78273 14.2542 0.947758 13.8544 1.28842C13.4563 1.63059 13.2125 2.11809 13.1807 2.64196C13.1489 3.16582 13.3306 3.68058 13.6849 4.06817L19.5836 10.9479L13.6849 17.8276C13.3306 18.2152 13.1489 18.7299 13.1807 19.2538C13.2125 19.7777 13.4562 20.2652 13.8544 20.6073C14.2541 20.948 14.7735 21.113 15.2958 21.0646C15.8182 21.0161 16.2996 20.7572 16.6281 20.3469L23.6047 12.2075C23.9469 11.8094 24.1119 11.2885 24.065 10.7662V10.7662Z" fill="white"/>
<path d="M11.065 10.7662C11.0256 10.368 10.8652 9.991 10.6047 9.68821L3.62814 1.54884C3.2996 1.13854 2.81816 0.879627 2.29581 0.831179C1.77345 0.78273 1.25416 0.947758 0.854439 1.28842C0.456268 1.63059 0.212514 2.11809 0.180693 2.64196C0.148898 3.16582 0.330581 3.68058 0.684869 4.06817L6.58359 10.9479L0.684869 17.8276C0.330589 18.2152 0.14891 18.7299 0.180693 19.2538C0.212487 19.7777 0.456245 20.2652 0.854439 20.6073C1.25412 20.948 1.77345 21.113 2.29581 21.0646C2.81816 21.0161 3.29958 20.7572 3.62814 20.3469L10.6047 12.2075C10.9469 11.8094 11.1119 11.2885 11.065 10.7662V10.7662Z" fill="white"/>
</svg>
