<svg width="19" height="25" viewBox="0 0 19 25" fill="none" xmlns="http://www.w3.org/2000/svg">
<path d="M5.24803 15.7439C3.75973 15.7439 2.54883 14.5329 2.54883 13.0447C2.54883 12.7283 2.80664 12.4705 3.12303 12.4705C3.43943 12.4705 3.69723 12.7283 3.69723 13.0447C3.69723 13.9001 4.39448 14.5974 5.24998 14.5974C6.10548 14.5974 6.80273 13.9002 6.80273 13.0447C6.80273 12.7283 7.06054 12.4705 7.37693 12.4705C7.69333 12.4705 7.95113 12.7283 7.95113 13.0447C7.94722 14.533 6.73628 15.7439 5.24803 15.7439Z" fill="#4AF6CD" stroke="#4AF6CD" stroke-width="0.5"/>
<path d="M9.50004 15.7439C8.01174 15.7439 6.80084 14.5329 6.80084 13.0447C6.80084 12.7283 7.05866 12.4705 7.37504 12.4705C7.69143 12.4705 7.94924 12.7283 7.94924 13.0447C7.94924 13.9001 8.64649 14.5974 9.50199 14.5974C10.3574 14.5974 11.0547 13.9002 11.0547 13.0447C11.0547 12.7283 11.3126 12.4705 11.6289 12.4705C11.9453 12.4705 12.2031 12.7283 12.2031 13.0447C12.1992 14.533 10.9883 15.7439 9.50004 15.7439Z" fill="#4AF6CD" stroke="#4AF6CD" stroke-width="0.5"/>
<path d="M13.752 15.7439C12.2637 15.7439 11.0528 14.5329 11.0528 13.0447C11.0528 12.7283 11.3106 12.4705 11.627 12.4705C11.9434 12.4705 12.2012 12.7283 12.2012 13.0447C12.2012 13.9001 12.8984 14.5974 13.7539 14.5974C14.6094 14.5974 15.3067 13.9002 15.3067 13.0447C15.3067 12.7283 15.5645 12.4705 15.8809 12.4705C16.1973 12.4705 16.4551 12.7283 16.4551 13.0447C16.4512 14.533 15.2402 15.7439 13.752 15.7439Z" fill="#4AF6CD" stroke="#4AF6CD" stroke-width="0.5"/>
<path fill-rule="evenodd" clip-rule="evenodd" d="M0.421997 15.0685C0.421997 20.0742 4.494 24.1465 9.5 24.1465L9.50025 24.1466C14.506 24.1466 18.5783 20.0746 18.5802 15.0686C18.5802 8.23659 10.2367 0.795042 9.88125 0.480587C9.67225 0.295042 9.35779 0.289182 9.141 0.464962C8.7835 0.751962 0.421997 7.59196 0.421997 15.0685ZM9.48411 1.67769C9.4842 1.67761 9.48429 1.67754 9.48437 1.67746H9.48387C9.48395 1.67754 9.48403 1.67761 9.48411 1.67769ZM9.48411 1.67769C7.86455 3.09799 1.56837 9.00179 1.56837 15.068C1.56837 19.441 5.12502 22.9975 9.49787 22.9975C13.8707 22.9975 17.4274 19.4408 17.4274 15.068C17.4293 9.52524 11.09 3.1916 9.48411 1.67769Z" fill="#4AF6CD"/>
</svg>
